# xmcd CD database file generated by MAGIX-FreeDB-MP3_Maker_14 v2.0beta1
#
# Track frame offsets:
#      150
#      13275
#      31656
#      42216
#      52790
#      64508
#      76602
#      90677
#      101898
#      115011
#      124308
#      134308
#      144194
#      157613
#      169997
#      187048
#      196492
#      207409
#
# Disc length: 2915 seconds
#
# Revision: 3
# Processed by: cddbd v1.5.2PL0 Copyright (c) Steve Scherf et al.
# Submitted via: MAGIX-FreeDB-MP3_Maker_14 v2.0beta1
#
DISCID=e90b6112
DTITLE=Various Artist - 18 Greatest Country legends
DYEAR=2006
DGENRE=Country
TTITLE0=Hank Williams. - Jambalaya
TTITLE1=Johnny Cash. - One Piece at A Time
TTITLE2=Waylon Jennings. - Only Daddy that'll walk the line
TTITLE3=Willie Nelson. - Blue Eyes Crying in The Rain
TTITLE4=Patsy Cline. - Walking After Midnight
TTITLE5=Merle Haggard. - I take a lot of pride in what I am
TTITLE6=George Jones. - A Good Year for Roses
TTITLE7=Conway Twitty. - Hello Darlin
TTITLE8=Ray Price. - City Lights
TTITLE9=Webb Pierce. - Honly tonk Song
TTITLE10=Jim Reeves. - He'll Have To Go
TTITLE11=Marty Robbins. - Knee Deep In The Blues
TTITLE12=Tammy Wynette. - DIVORCE
TTITLE13=Charlie Rich. - Behind Closed Doors
TTITLE14=Glen Campbell. - Southern Nights
TTITLE15=Ernest Tubb. - Walking The Floor Over You
TTITLE16=Faron Young. - Wine Me Up
TTITLE17=Don Gibson. - A Legend In My Time
EXTD=
EXTT0=
EXTT1=
EXTT2=
EXTT3=
EXTT4=
EXTT5=
EXTT6=
EXTT7=
EXTT8=
EXTT9=
EXTT10=
EXTT11=
EXTT12=
EXTT13=
EXTT14=
EXTT15=
EXTT16=
EXTT17=
PLAYORDER=
